<svg xmlns="http://www.w3.org/2000/svg" version="1.1" xmlns:xlink="http://www.w3.org/1999/xlink" width="512" height="512" x="0" y="0" viewBox="0 0 24 24" style="enable-background:new 0 0 512 512" xml:space="preserve" class=""><g><path d="M24 5h-1.5V3.6c0-1.671-1.13-3.191-2.767-3.525A3.506 3.506 0 0 0 15.5 3.5V5H14v6a2 2 0 0 0 2 2h6a2 2 0 0 0 2-2zm-4 5h-2V8h2zm.5-5h-3V3.5c0-.826.674-1.5 1.5-1.5s1.5.674 1.5 1.5zM12 8v3c0 .342.057.669.138.986-1.144.111-2.144-.845-2.138-1.986 0-1.103.897-2 2-2zm11.687 6.614A12.024 12.024 0 0 1 18 22.376V19c0-1.654-1.346-3-3-3H9c-1.654 0-3 1.346-3 3v3.376C2.419 20.298 0 16.43 0 12 0 5.383 5.383 0 12 0c.881 0 1.739.102 2.566.283A5.456 5.456 0 0 0 13.522 3H12v3c-2.206 0-4 1.794-4 4s1.794 4 4 4c.405 0 .789-.078 1.158-.191A3.987 3.987 0 0 0 16 15h6c.605 0 1.172-.145 1.687-.386zM16 19v4.3c-1.253.445-2.596.7-4 .7s-2.747-.255-4-.7V19c0-.552.449-1 1-1h6c.551 0 1 .448 1 1z" fill="#1351B4" opacity="1" data-original="#1351B4" class=""></path></g></svg>